<svg width="42" height="42" fill="none" xmlns="http://www.w3.org/2000/svg">
    <g>
        <path id="svg_1"
              d="m80.156,27.305c-0.871,-0.342 -1.627,-0.855 -2.324,-1.54c-0.64,-0.685 -1.163,-1.427 -1.57,-2.283c-0.348,-0.856 -0.58,-1.826 -0.58,-2.796c0,-0.97 0.174,-1.883 0.58,-2.796c0.35,-0.856 0.872,-1.598 1.57,-2.282c0.639,-0.628 1.453,-1.141 2.324,-1.54c0.872,-0.343 1.86,-0.572 2.848,-0.572c0.988,0 1.918,0.172 2.848,0.571c0.872,0.342 1.627,0.856 2.266,1.54c0.64,0.629 1.163,1.427 1.512,2.283c0.406,0.913 0.58,1.826 0.58,2.796c0,0.97 -0.174,1.883 -0.58,2.796c-0.35,0.856 -0.872,1.598 -1.57,2.283c-0.697,0.627 -1.453,1.141 -2.324,1.54c-0.872,0.343 -1.86,0.571 -2.848,0.571c-0.93,0 -1.86,-0.171 -2.732,-0.57l0,-0.001zm-1.046,-15.52c-1.162,0.513 -2.266,1.198 -3.138,2.111c-0.93,0.913 -1.627,1.94 -2.15,3.081c-0.523,1.199 -0.756,2.454 -0.756,3.766c0,1.313 0.233,2.568 0.755,3.766c0.524,1.142 1.221,2.226 2.15,3.082c0.93,0.913 1.977,1.597 3.14,2.111c1.22,0.513 2.498,0.742 3.835,0.742c1.337,0 2.615,-0.229 3.836,-0.742c1.162,-0.514 2.266,-1.198 3.138,-2.111c0.93,-0.913 1.627,-1.94 2.15,-3.082c0.524,-1.198 0.756,-2.453 0.756,-3.766c0,-1.312 -0.232,-2.567 -0.755,-3.766c-0.524,-1.14 -1.221,-2.225 -2.15,-3.081c-0.93,-0.913 -1.977,-1.598 -3.14,-2.111c-1.22,-0.514 -2.498,-0.742 -3.835,-0.742c-1.337,0 -2.615,0.228 -3.836,0.742zm-21.096,0c-1.163,0.513 -2.267,1.198 -3.139,2.111c-0.988,0.856 -1.685,1.94 -2.15,3.081c-0.523,1.199 -0.756,2.511 -0.756,3.766c0,1.313 0.29,2.568 0.756,3.823c0.465,1.142 1.22,2.169 2.15,3.082c0.93,0.913 1.976,1.598 3.139,2.111c1.22,0.514 2.557,0.742 3.835,0.742c1.337,0 2.616,-0.286 3.836,-0.742c1.22,-0.514 2.267,-1.198 3.138,-2.054c0.93,-0.913 1.628,-1.94 2.15,-3.139c0.117,-0.228 0.233,-0.513 0.291,-0.798l-2.906,0c-0.348,0.741 -0.813,1.426 -1.453,2.054c-0.639,0.628 -1.452,1.141 -2.324,1.54c-0.872,0.343 -1.86,0.571 -2.848,0.571c-0.988,0 -1.918,-0.171 -2.79,-0.57c-0.871,-0.343 -1.627,-0.857 -2.324,-1.541c-0.64,-0.685 -1.163,-1.427 -1.57,-2.283c-0.348,-0.856 -0.58,-1.826 -0.58,-2.796c0,-0.97 0.174,-1.883 0.58,-2.796c0.35,-0.856 0.872,-1.597 1.57,-2.282c0.639,-0.628 1.453,-1.141 2.324,-1.54c0.872,-0.343 1.86,-0.571 2.848,-0.571c0.988,0 1.918,0.17 2.848,0.57c0.872,0.343 1.627,0.856 2.325,1.54c0.58,0.572 1.046,1.256 1.453,2.055l2.906,0c-0.059,-0.285 -0.175,-0.514 -0.291,-0.799c-0.523,-1.141 -1.22,-2.225 -2.15,-3.081c-0.872,-0.856 -1.977,-1.598 -3.139,-2.111c-1.22,-0.514 -2.499,-0.742 -3.836,-0.742c-1.394,0.057 -2.731,0.285 -3.893,0.799zm37.892,18.715l2.674,0l0,-19.457l-2.674,0l0,19.457zm33.069,-12.61c0,-2.568 2.151,-4.68 4.766,-4.68s4.707,2.111 4.707,4.68c0,2.51 -2.092,4.621 -4.707,4.621c-2.673,0 -4.766,-2.054 -4.766,-4.622l0,0.001zm-2.383,0.056c0,3.823 3.197,6.79 7.265,6.79l1.627,0l-3.138,5.878l2.674,0l4.94,-9.244c0.697,-1.255 0.988,-2.397 0.988,-3.48c0,-3.824 -3.139,-6.848 -7.149,-6.848c-4.068,-0.057 -7.207,3.024 -7.207,6.904zm18.947,6.79c0,-2.225 1.86,-3.994 4.126,-3.994c2.325,0 4.185,1.77 4.185,3.995s-1.86,4.051 -4.185,4.051c-2.325,0 -4.126,-1.826 -4.126,-4.051l0,-0.001zm1.337,-8.9c0,-1.485 1.22,-2.74 2.731,-2.74s2.79,1.255 2.79,2.74c0,1.483 -1.279,2.738 -2.79,2.738c-1.453,0 -2.731,-1.255 -2.731,-2.739l0,0.001zm-2.209,0c0,1.083 0.349,2.11 0.988,2.966l0.523,0.742l-0.697,0.57c-1.395,1.142 -2.209,2.854 -2.209,4.623c0,3.423 2.848,6.22 6.335,6.22c3.545,0 6.393,-2.797 6.393,-6.22c0,-1.826 -0.814,-3.481 -2.208,-4.68l-0.698,-0.57l0.581,-0.742c0.64,-0.799 0.988,-1.826 0.988,-2.91c0,-2.682 -2.208,-4.793 -4.998,-4.793c-2.848,-0.057 -4.998,2.054 -4.998,4.793l0,0.001zm-24.526,-4.794l0,15.121c0,0.856 -0.465,1.37 -1.278,1.427c-0.814,0 -1.279,-0.628 -1.453,-0.97l-6.103,-12.953c-0.348,-0.8 -0.871,-1.427 -1.627,-1.94c-0.697,-0.457 -1.511,-0.685 -2.383,-0.685c-1.046,0 -1.976,0.342 -2.731,0.913c-0.058,0 -0.058,0.057 -0.116,0.057c-0.872,0.742 -1.279,1.655 -1.279,2.739l0,15.749l2.848,0l0,-15.35c0,-0.799 0.581,-1.37 1.336,-1.37c0.582,0 1.105,0.343 1.453,1.028l0.059,0.114c1.452,3.138 4.649,9.986 6.567,13.638c0.639,1.198 1.743,1.769 3.487,1.769c1.046,0 2.034,-0.286 2.79,-0.913c0.871,-0.685 1.336,-1.256 1.336,-2.625l0,-15.75l-2.906,0l0,0.001zm-85.84,-10.042l-25.861,0c-4.127,0 -7.44,3.252 -7.44,7.304l0,25.392c0,4.052 3.313,7.304 7.44,7.304l25.86,0c4.069,0 7.44,-3.252 7.44,-7.304l0,-25.392c0,-4.052 -3.313,-7.304 -7.44,-7.304l0.001,0zm-6.276,9.986c3.022,0 5.463,2.396 5.463,5.364c0,0.912 -0.233,1.768 -0.64,2.567c-0.697,-0.513 -1.452,-0.97 -2.266,-1.255c0.232,-0.4 0.349,-0.856 0.349,-1.312c0,-1.541 -1.279,-2.796 -2.848,-2.796c-1.57,0 -2.848,1.255 -2.848,2.796c0,0.456 0.116,0.912 0.349,1.312c-0.814,0.285 -1.628,0.685 -2.267,1.255c-0.465,-0.799 -0.64,-1.655 -0.64,-2.568c-0.115,-2.967 2.326,-5.363 5.348,-5.363zm-13.31,20.028c-3.021,0 -5.462,-2.396 -5.462,-5.363l2.615,0c0,1.54 1.279,2.796 2.848,2.796s2.848,-1.256 2.848,-2.796l2.615,0c0,2.967 -2.441,5.363 -5.463,5.363l-0.001,0zm0,-7.532c-3.486,0 -6.334,-2.796 -6.334,-6.22c0,-3.423 2.848,-6.276 6.335,-6.276s6.393,2.796 6.393,6.276c-0.058,3.424 -2.906,6.22 -6.393,6.22l-0.001,0zm13.31,7.532c-3.487,0 -6.393,-2.796 -6.393,-6.22c0,-3.48 2.848,-6.276 6.393,-6.276c3.487,0 6.335,2.796 6.335,6.277c0,3.423 -2.848,6.22 -6.335,6.22l0,-0.001zm3.777,-6.276c0,2.054 -1.685,3.651 -3.777,3.651s-3.778,-1.654 -3.778,-3.651c0,-2.055 1.686,-3.71 3.778,-3.71c2.092,0.058 3.777,1.712 3.777,3.71zm-13.367,-7.476c0,2.055 -1.685,3.71 -3.777,3.71c-2.093,0 -3.778,-1.655 -3.778,-3.71c0,-2.054 1.685,-3.709 3.778,-3.709c2.15,0 3.777,1.655 3.777,3.71l0,-0.001z"
              fill="#D9B432"/>
    </g>
</svg>
