<svg width="512" height="512" viewBox="0 0 512 512" fill="none" xmlns="http://www.w3.org/2000/svg">
<path d="M512 160.935C512 156.245 512 149.88 511.9 142.125C511.825 133.95 511.775 130.625 511.7 126.755C511.48 115.255 510.735 103.645 508.785 93.255C506.655 81.935 503.785 71.65 498.56 61.36C493.265 50.915 486.01 41.89 478.15 33.86C470.1 26 461.075 18.745 450.65 13.45C440.36 8.24 430.075 5.355 418.755 3.225C408.375 1.275 396.755 0.53 385.255 0.31C381.375 0.225 378.05 0.175 369.875 0.1C362.12 0.03 355.755 0 351.065 0H160.935C156.245 0 149.88 0.03 142.125 0.1C133.95 0.175 130.625 0.225 126.755 0.3C115.255 0.52 103.65 1.265 93.255 3.215C81.935 5.345 71.65 8.215 61.36 13.44C50.925 18.735 41.9 26 33.85 33.85C25.99 41.9 18.735 50.925 13.44 61.35C8.23 71.64 5.345 81.925 3.215 93.245C1.265 103.625 0.52 115.245 0.3 126.745C0.225 130.625 0.175 133.95 0.1 142.125C0.03 149.88 0 156.245 0 160.935V351.065C0 355.755 0.03 362.12 0.1 369.875C0.175 378.05 0.225 381.375 0.3 385.245C0.52 396.745 1.265 408.355 3.215 418.745C5.345 430.065 8.215 440.35 13.44 450.64C18.735 461.085 25.99 470.11 33.85 478.14C41.9 486 50.925 493.255 61.35 498.55C71.64 503.76 81.925 506.645 93.245 508.775C103.63 510.725 115.245 511.47 126.745 511.69C130.615 511.765 133.94 511.815 142.115 511.89C149.87 511.965 156.235 511.99 160.925 511.99H351.065C355.755 511.99 362.12 511.99 369.875 511.89C378.05 511.815 381.375 511.765 385.245 511.69C396.745 511.47 408.355 510.725 418.745 508.775C430.065 506.645 440.35 503.775 450.64 498.55C461.085 493.255 470.11 486 478.14 478.14C486 470.09 493.255 461.065 498.55 450.64C503.76 440.35 506.645 430.065 508.775 418.745C510.725 408.365 511.47 396.745 511.69 385.245C511.765 381.375 511.815 378.05 511.89 369.875C511.965 362.12 511.99 355.755 511.99 351.065L512 160.935Z" fill="#7524F9"/>
<path fill-rule="evenodd" clip-rule="evenodd" d="M415.125 177.155V195.235C415.125 196.985 414.663 198.704 413.785 200.218C412.907 201.731 411.644 202.986 410.125 203.855L351.87 237.5L403.92 267.465C407.33 269.426 410.162 272.252 412.131 275.657C414.1 279.062 415.136 282.926 415.135 286.86V335.06C415.134 338.998 414.095 342.866 412.121 346.274C410.148 349.682 407.31 352.509 403.895 354.47L267 433.03C263.601 434.981 259.75 436.005 255.831 436C251.912 435.994 248.063 434.96 244.67 433L199.85 407.12C199.093 406.684 198.464 406.056 198.027 405.3C197.589 404.544 197.359 403.686 197.359 402.812C197.359 401.939 197.589 401.081 198.027 400.324C198.464 399.568 199.093 398.941 199.85 398.505L347.785 313.355C348.16 313.134 348.472 312.819 348.688 312.441C348.904 312.063 349.018 311.635 349.018 311.2C349.018 310.764 348.904 310.337 348.688 309.959C348.472 309.581 348.16 309.266 347.785 309.045L292.835 277.315C291.324 276.443 289.61 275.984 287.865 275.984C286.12 275.984 284.406 276.443 282.895 277.315L132.58 363.905C131.45 364.555 130.169 364.896 128.865 364.896C127.561 364.896 126.28 364.555 125.15 363.905L108.15 354.165C104.727 352.205 101.882 349.375 99.9038 345.962C97.9256 342.549 96.8842 338.675 96.885 334.73V315C96.8871 313.689 97.2343 312.402 97.8918 311.268C98.5492 310.134 99.4936 309.193 100.63 308.54L316.055 184.73C316.429 184.509 316.739 184.194 316.955 183.817C317.17 183.439 317.284 183.012 317.284 182.577C317.284 182.143 317.17 181.716 316.955 181.338C316.739 180.961 316.429 180.646 316.055 180.425L261.055 148.585C259.543 147.714 257.83 147.256 256.085 147.256C254.34 147.256 252.627 147.714 251.115 148.585L104.32 233C103.562 233.427 102.706 233.649 101.836 233.644C100.966 233.639 100.113 233.407 99.3601 232.972C98.6073 232.536 97.9811 231.911 97.5435 231.159C97.106 230.408 96.8721 229.555 96.865 228.685V176.925C96.8624 172.984 97.9005 169.113 99.8741 165.702C101.848 162.291 104.687 159.462 108.105 157.5L245 78.97C248.396 77.0192 252.245 75.9946 256.161 75.999C260.077 76.0034 263.924 77.0366 267.315 78.995L403.925 157.78C407.328 159.743 410.154 162.566 412.12 165.967C414.086 169.368 415.122 173.227 415.125 177.155Z" fill="white"/>
</svg>
