<svg fill="none" height="100" viewBox="0 0 100 100" width="100" xmlns="http://www.w3.org/2000/svg"><g fill="#495bff"><path d="m62.2857 87.9644-36.8129-21.2638c-1.2932-.7476-2.0889-2.127-2.0889-3.6209v-42.5794c0-.6442-.697-1.0469-1.255-.7242l-7.5325 4.355c-2.845 1.6454-4.5964 4.6813-4.5964 7.9661v35.8079c0 3.286 1.7514 6.3219 4.5964 7.9661l30.9504 17.8929c2.8488 1.6479 6.3613 1.6479 9.2113 0l7.5276-4.3525c.5579-.3202.5579-1.1245 0-1.4472z"/><path d="m32.1596 62.8185 15.8915 9.1879c1.2957.7488 2.8919.7488 4.1863 0l15.8952-9.1879c1.2932-.7476 2.0888-2.127 2.0888-3.6209v-18.3868c0-1.4939-.7968-2.8733-2.0888-3.6209l-15.894-9.1891c-1.2956-.7488-2.8918-.7488-4.1862 0l-3.9437 2.2797c-.2795.1614-.6281-.0406-.6281-.3621l.0259-21.01747c.0012-.64414-.6971-1.04811-1.255-.72542l-10.0636 5.81819c-1.2919.7463-2.0875 2.1257-2.0888 3.6184l-.0271 41.583c-.0024 1.494.7944 2.8758 2.0876 3.6234zm9.2026-16.1871c0-1.0555.5629-2.0309 1.4767-2.5593l5.828-3.3684c.9151-.5296 2.0433-.5296 2.9584 0l5.828 3.3684c.9138.5284 1.4767 1.5038 1.4767 2.5593v6.7443c0 1.0555-.5629 2.031-1.4767 2.5593l-5.828 3.3685c-.9151.5296-2.0433.5296-2.9584 0l-5.828-3.3685c-.9138-.5283-1.4767-1.5038-1.4767-2.5593z"/><path d="m85.7047 24.12-30.9505-17.89409c-1.2968-.75005-2.7304-1.15771-4.1764-1.22545-.2377-.01109-.436.18104-.436.41875v13.12409c0 .2993.1589.5751.4176.7242l24.2689 14.0231c1.2932.7476 2.0888 2.127 2.0888 3.621v26.1558c0 1.4939-.7968 2.8733-2.0888 3.6209l-16.7315 9.6731c-.5567.3227-.5567 1.1269 0 1.4484l11.289 6.5177c.5185.2993 1.1565.2993 1.6738 0l14.6451-8.4661c2.8438-1.6442 4.5964-4.6802 4.5964-7.9661v-35.8092c0-3.2859-1.7514-6.3219-4.5964-7.9661z"/></g></svg>