<svg height="64" viewBox="0 0 64 64" width="64" xmlns="http://www.w3.org/2000/svg" xmlns:xlink="http://www.w3.org/1999/xlink"><linearGradient id="a"><stop offset="0" stop-color="#1e3da0"/><stop offset="1" stop-color="#3750de"/></linearGradient><linearGradient id="b" x1="52.54575%" x2="52.54575%" xlink:href="#a" y1="100%" y2="0%"/><linearGradient id="c" x1="50%" x2="50%" y1="0%" y2="100%"><stop offset="0" stop-color="#1d3ba3" stop-opacity="0"/><stop offset="1" stop-color="#173793" stop-opacity=".652938"/></linearGradient><linearGradient id="d" x1="50%" x2="50%" xlink:href="#a" y1="100%" y2="0%"/><g fill="none" fill-rule="evenodd"><path d="m18 0h28c9.9411255 0 18 8.0588745 18 18v28c0 9.9411255-8.0588745 18-18 18h-28c-9.9411255 0-18-8.0588745-18-18v-28c0-9.9411255 8.0588745-18 18-18z" fill="url(#b)"/><circle cx="32.285714" cy="32.285714" fill="#fff" r="24.285714"/><path d="m32 0c17.673112 0 32 14.326888 32 32s-14.326888 32-32 32-32-14.326888-32-32 14.326888-32 32-32zm-.1434978 7.60538117c-13.4727759 0-24.39461879 10.92184283-24.39461879 24.39461883s10.92184289 24.3946188 24.39461879 24.3946188c13.472776 0 24.3946189-10.9218428 24.3946189-24.3946188s-10.9218429-24.39461883-24.3946189-24.39461883z" fill="url(#c)"/><path d="m29.0909091 44.3636364c0 2.0083081-1.6280555 3.6363636-3.6363636 3.6363636-2.0083082 0-3.6363637-1.6280555-3.6363637-3.6363636l-.0001818-2.1826364-2.1816364.0008182c-2.0083081 0-3.6363636-1.6280555-3.6363636-3.6363637 0-2.0083081 1.6280555-3.6363636 3.6363636-3.6363636l2.1816364-.0000909v-5.819l-2.1816364.0009091c-2.0083081 0-3.6363636-1.6280555-3.6363636-3.6363636 0-2.0083082 1.6280555-3.6363637 3.6363636-3.6363637l2.1816364-.0001818.0001818-2.1816364c0-2.0083081 1.6280555-3.6363636 3.6363637-3.6363636 2.0083081 0 3.6363636 1.6280555 3.6363636 3.6363636l-.0009091 2.1816364h5.819l.0000909-2.1816364c0-2.0083081 1.6280555-3.6363636 3.6363636-3.6363636 2.0083082 0 3.6363637 1.6280555 3.6363637 3.6363636l-.0008182 2.1816364 2.1826364.0001818c2.0083081 0 3.6363636 1.6280555 3.6363636 3.6363637 0 2.0083081-1.6280555 3.6363636-3.6363636 3.6363636l-2.1826364-.0009091v5.819l2.1826364.0000909c2.0083081 0 3.6363636 1.6280555 3.6363636 3.6363636 0 2.0083082-1.6280555 3.6363637-3.6363636 3.6363637l-2.1826364-.0008182.0008182 2.1826364c0 2.0083081-1.6280555 3.6363636-3.6363637 3.6363636-2.0083081 0-3.6363636-1.6280555-3.6363636-3.6363636l-.0000909-2.1826364h-5.819zm-.0009091-9.4546364h5.819v-5.819h-5.819z" fill="url(#d)" transform="matrix(.8660254 -.5 .5 .8660254 -11.712813 20.287187)"/></g></svg>