<svg fill="none" height="24" viewBox="0 0 24 24" width="24" xmlns="http://www.w3.org/2000/svg"><g clip-rule="evenodd" fill-rule="evenodd"><path d="m19.4838 15.249c.2769 0 .5048.2099.5325.4788l.0022.0429-.0043.1142c-.335 3.9833-3.7904 7.1151-8.0037 7.1151-4.1706 0-7.59863-3.0687-7.99269-6.9946l-.01638-.1811-.00106-.0532.00178-.0398c.02598-.2706.25487-.4823.53289-.4823z" fill="#afd8f7"/><path d="m4.30009 1c3.78755 0 6.82581 2.90911 6.82581 6.50277v6.35343c-.0004.2917-.2392.5284-.534.5288l-6.05758.0032c-.29511.0007-.53432-.2361-.53432-.5278l.00036-12.56375c0-.15149.11426-.27622.26199-.29418z" fill="#182a71"/><path d="m19.6921 12.2383.0388.1283-.0288-.0846c.1616.4534.2666.7769.3153 1.3413.0335.3879-.257.7289-.6485.762l-.0303.0022-3.0809.0007c-2.1063 0-3.8204-1.4741-3.8752-3.5423l-.0014-.1021v-3.4658c0-.20153.1694-.36959.3741-.36007 3.3003.15466 5.9978 2.34151 6.9369 5.32037z" fill="#3485c4"/></g></svg>