<svg width="74" height="74" viewBox="0 0 74 74" fill="none" xmlns="http://www.w3.org/2000/svg"><path fill-rule="evenodd" clip-rule="evenodd" d="M73.8947 18.5788C73.8947 28.7815 65.6238 37.0525 55.4211 37.0525C45.2573 37.0525 37.0106 28.8446 36.9477 18.6956C36.8853 28.813 28.6899 37.0015 18.5699 37.0527C28.7284 37.1045 36.9474 45.3555 36.9474 55.5262C36.9474 65.7289 28.6764 73.9998 18.4737 73.9998C8.27095 73.9998 0 65.7289 0 55.5262C0 45.3553 8.21939 37.1041 18.3782 37.0527C8.21972 37.0009 0.000719572 28.7499 0.000719572 18.5793C0.000719572 8.37654 8.27167 0.105591 18.4744 0.105591C28.6382 0.105591 36.8849 8.31348 36.9477 18.4625C37.0103 8.31326 45.2571 0.105103 55.4211 0.105103C65.6238 0.105103 73.8947 8.37605 73.8947 18.5788ZM55.4211 37.0525C45.2183 37.0525 36.9474 45.3234 36.9474 55.5262C36.9474 65.7289 45.2183 73.9998 55.4211 73.9998C65.6238 73.9998 73.8947 65.7289 73.8947 55.5262C73.8947 45.3234 65.6238 37.0525 55.4211 37.0525Z" fill="#27A577"/></svg>
