<svg fill="none" height="42" width="42" xmlns="http://www.w3.org/2000/svg"><path d="m80.156 27.305c-.871-.342-1.627-.855-2.324-1.54-.64-.685-1.163-1.427-1.57-2.283-.348-.856-.58-1.826-.58-2.796s.174-1.883.58-2.796c.35-.856.872-1.598 1.57-2.282.639-.628 1.453-1.141 2.324-1.54.872-.343 1.86-.572 2.848-.572s1.918.172 2.848.571c.872.342 1.627.856 2.266 1.54.64.629 1.163 1.427 1.512 2.283.406.913.58 1.826.58 2.796s-.174 1.883-.58 2.796c-.35.856-.872 1.598-1.57 2.283-.697.627-1.453 1.141-2.324 1.54-.872.343-1.86.571-2.848.571-.93 0-1.86-.171-2.732-.57zm-1.046-15.52c-1.162.513-2.266 1.198-3.138 2.111-.93.913-1.627 1.94-2.15 3.081-.523 1.199-.756 2.454-.756 3.766 0 1.313.233 2.568.755 3.766.524 1.142 1.221 2.226 2.15 3.082.93.913 1.977 1.597 3.14 2.111 1.22.513 2.498.742 3.835.742s2.615-.229 3.836-.742c1.162-.514 2.266-1.198 3.138-2.111.93-.913 1.627-1.94 2.15-3.082.524-1.198.756-2.453.756-3.766 0-1.312-.232-2.567-.755-3.766-.524-1.14-1.221-2.225-2.15-3.081-.93-.913-1.977-1.598-3.14-2.111-1.22-.514-2.498-.742-3.835-.742s-2.615.228-3.836.742zm-21.096 0c-1.163.513-2.267 1.198-3.139 2.111-.988.856-1.685 1.94-2.15 3.081-.523 1.199-.756 2.511-.756 3.766 0 1.313.29 2.568.756 3.823.465 1.142 1.22 2.169 2.15 3.082s1.976 1.598 3.139 2.111c1.22.514 2.557.742 3.835.742 1.337 0 2.616-.286 3.836-.742 1.22-.514 2.267-1.198 3.138-2.054.93-.913 1.628-1.94 2.15-3.139.117-.228.233-.513.291-.798h-2.906c-.348.741-.813 1.426-1.453 2.054-.639.628-1.452 1.141-2.324 1.54-.872.343-1.86.571-2.848.571s-1.918-.171-2.79-.57c-.871-.343-1.627-.857-2.324-1.541-.64-.685-1.163-1.427-1.57-2.283-.348-.856-.58-1.826-.58-2.796s.174-1.883.58-2.796c.35-.856.872-1.597 1.57-2.282.639-.628 1.453-1.141 2.324-1.54.872-.343 1.86-.571 2.848-.571s1.918.17 2.848.57c.872.343 1.627.856 2.325 1.54.58.572 1.046 1.256 1.453 2.055h2.906c-.059-.285-.175-.514-.291-.799-.523-1.141-1.22-2.225-2.15-3.081-.872-.856-1.977-1.598-3.139-2.111-1.22-.514-2.499-.742-3.836-.742-1.394.057-2.731.285-3.893.799zm37.892 18.715h2.674v-19.457h-2.674zm33.069-12.61c0-2.568 2.151-4.68 4.766-4.68s4.707 2.111 4.707 4.68c0 2.51-2.092 4.621-4.707 4.621-2.673 0-4.766-2.054-4.766-4.622zm-2.383.056c0 3.823 3.197 6.79 7.265 6.79h1.627l-3.138 5.878h2.674l4.94-9.244c.697-1.255.988-2.397.988-3.48 0-3.824-3.139-6.848-7.149-6.848-4.068-.057-7.207 3.024-7.207 6.904zm18.947 6.79c0-2.225 1.86-3.994 4.126-3.994 2.325 0 4.185 1.77 4.185 3.995s-1.86 4.051-4.185 4.051-4.126-1.826-4.126-4.051zm1.337-8.9c0-1.485 1.22-2.74 2.731-2.74s2.79 1.255 2.79 2.74c0 1.483-1.279 2.738-2.79 2.738-1.453 0-2.731-1.255-2.731-2.739zm-2.209 0c0 1.083.349 2.11.988 2.966l.523.742-.697.57c-1.395 1.142-2.209 2.854-2.209 4.623 0 3.423 2.848 6.22 6.335 6.22 3.545 0 6.393-2.797 6.393-6.22 0-1.826-.814-3.481-2.208-4.68l-.698-.57.581-.742c.64-.799.988-1.826.988-2.91 0-2.682-2.208-4.793-4.998-4.793-2.848-.057-4.998 2.054-4.998 4.793zm-24.526-4.794v15.121c0 .856-.465 1.37-1.278 1.427-.814 0-1.279-.628-1.453-.97l-6.103-12.953c-.348-.8-.871-1.427-1.627-1.94-.697-.457-1.511-.685-2.383-.685-1.046 0-1.976.342-2.731.913-.058 0-.058.057-.116.057-.872.742-1.279 1.655-1.279 2.739v15.749h2.848v-15.35c0-.799.581-1.37 1.336-1.37.582 0 1.105.343 1.453 1.028l.059.114c1.452 3.138 4.649 9.986 6.567 13.638.639 1.198 1.743 1.769 3.487 1.769 1.046 0 2.034-.286 2.79-.913.871-.685 1.336-1.256 1.336-2.625v-15.75h-2.906zm-85.84-10.042h-25.861c-4.127 0-7.44 3.252-7.44 7.304v25.392c0 4.052 3.313 7.304 7.44 7.304h25.86c4.069 0 7.44-3.252 7.44-7.304v-25.392c0-4.052-3.313-7.304-7.44-7.304h.001zm-6.276 9.986c3.022 0 5.463 2.396 5.463 5.364 0 .912-.233 1.768-.64 2.567-.697-.513-1.452-.97-2.266-1.255.232-.4.349-.856.349-1.312 0-1.541-1.279-2.796-2.848-2.796-1.57 0-2.848 1.255-2.848 2.796 0 .456.116.912.349 1.312-.814.285-1.628.685-2.267 1.255-.465-.799-.64-1.655-.64-2.568-.115-2.967 2.326-5.363 5.348-5.363zm-13.31 20.028c-3.021 0-5.462-2.396-5.462-5.363h2.615c0 1.54 1.279 2.796 2.848 2.796s2.848-1.256 2.848-2.796h2.615c0 2.967-2.441 5.363-5.463 5.363zm0-7.532c-3.486 0-6.334-2.796-6.334-6.22 0-3.423 2.848-6.276 6.335-6.276s6.393 2.796 6.393 6.276c-.058 3.424-2.906 6.22-6.393 6.22zm13.31 7.532c-3.487 0-6.393-2.796-6.393-6.22 0-3.48 2.848-6.276 6.393-6.276 3.487 0 6.335 2.796 6.335 6.277 0 3.423-2.848 6.22-6.335 6.22zm3.777-6.276c0 2.054-1.685 3.651-3.777 3.651s-3.778-1.654-3.778-3.651c0-2.055 1.686-3.71 3.778-3.71 2.092.058 3.777 1.712 3.777 3.71zm-13.367-7.476c0 2.055-1.685 3.71-3.777 3.71-2.093 0-3.778-1.655-3.778-3.71 0-2.054 1.685-3.709 3.778-3.709 2.15 0 3.777 1.655 3.777 3.71z" fill="#d9b432"/></svg>