<svg id="Layer_1" data-name="Layer 1" xmlns="http://www.w3.org/2000/svg" viewBox="0 0 240.644 70.089"><title>Coin98 Wallet</title><path d="M129.1,32.783a10.717,10.717,0,0,1-3.384-2.289,11.319,11.319,0,0,1-2.287-3.384,10.635,10.635,0,0,1,9.827-14.792,10.906,10.906,0,0,1,4.16.829,11.175,11.175,0,0,1,3.371,2.287,10.306,10.306,0,0,1,2.26,3.375,10.538,10.538,0,0,1,0,8.309,10.859,10.859,0,0,1-2.266,3.385,11.25,11.25,0,0,1-3.384,2.289,11.023,11.023,0,0,1-4.158.817,10.7,10.7,0,0,1-4.142-.826M127.581,9.518a14.539,14.539,0,0,0-7.771,7.768,14.726,14.726,0,0,0,0,11.355,14.546,14.546,0,0,0,7.772,7.771,14.7,14.7,0,0,0,11.352,0,14.528,14.528,0,0,0,7.772-7.771,14.729,14.729,0,0,0,0-11.349,14.563,14.563,0,0,0-7.776-7.774,14.791,14.791,0,0,0-11.35,0M96.533,9.509a15.038,15.038,0,0,0-4.653,3.128,14.782,14.782,0,0,0-3.122,4.647,14.645,14.645,0,0,0,0,11.363,14.8,14.8,0,0,0,3.12,4.641,14.959,14.959,0,0,0,4.644,3.13,14.733,14.733,0,0,0,5.682,1.134A14.609,14.609,0,0,0,112.516,33.3a14.866,14.866,0,0,0,3.133-4.662c.158-.378.3-.769.435-1.171h-4.243A10.99,10.99,0,0,1,109.73,30.5a10.442,10.442,0,0,1-7.542,3.106,10.557,10.557,0,0,1-7.529-3.115,11.318,11.318,0,0,1-2.287-3.386,10.914,10.914,0,0,1,.01-8.3,10.618,10.618,0,0,1,9.822-6.489,10.816,10.816,0,0,1,4.161.835,11.377,11.377,0,0,1,3.381,2.281,10.711,10.711,0,0,1,2.106,3.046h4.234c-.127-.405-.275-.8-.432-1.185a14.613,14.613,0,0,0-7.774-7.777,14.814,14.814,0,0,0-11.347-.009M152.24,37.552h3.94V8.384h-3.94ZM200.9,18.664a6.96,6.96,0,1,1,13.92,0,6.96,6.96,0,0,1-13.92,0m-3.543.056c0,5.693,4.7,10.148,10.688,10.148h2.378l-4.647,8.814h3.964l7.228-13.856a11.2,11.2,0,0,0,1.446-5.213,10.531,10.531,0,0,0-21.057.107m27.854,10.2a6.079,6.079,0,0,1,12.156,0,6.078,6.078,0,1,1-12.156,0m2.024-13.347a4.106,4.106,0,0,1,4-4.1,4.1,4.1,0,1,1,0,8.206,4.107,4.107,0,0,1-4-4.1m-3.272,0A7.321,7.321,0,0,0,225.389,20l.811,1.083-1.034.878a9.039,9.039,0,0,0-3.23,6.96,9.354,9.354,0,0,0,18.708,0A9.043,9.043,0,0,0,237.36,21.9l-1.056-.887.849-1.092a6.98,6.98,0,0,0,1.46-4.347,7.324,7.324,0,0,0-14.646,0M187.906,8.384l0,22.628a1.926,1.926,0,0,1-1.877,2.158,2.5,2.5,0,0,1-2.141-1.47l-9.005-19.379A6.264,6.264,0,0,0,169,8.384a6.32,6.32,0,0,0-4.039,1.4,1.754,1.754,0,0,0-.151.124A5.226,5.226,0,0,0,162.9,13.97V37.552h4.176V14.581a1.932,1.932,0,0,1,1.932-2.031,2.339,2.339,0,0,1,2.1,1.5l.081.191c2.116,4.68,6.85,14.971,9.621,20.429.932,1.833,2.524,2.657,5.169,2.67a6.482,6.482,0,0,0,4.126-1.388,4.287,4.287,0,0,0,1.974-3.9V8.384Z"/><path d="M94.148,61.077a.7.7,0,0,1-.689-.587L89.1,46.967a.767.767,0,0,1-.035-.219.955.955,0,0,1,.167-.489.6.6,0,0,1,.558-.27.692.692,0,0,1,.414.132.727.727,0,0,1,.264.409l3.784,11.741,3.577-11.684a.752.752,0,0,1,.327-.454.925.925,0,0,1,.489-.144,1,1,0,0,1,.518.144.708.708,0,0,1,.321.454l3.577,11.684,3.783-11.741a.773.773,0,0,1,.271-.4.67.67,0,0,1,.4-.127.647.647,0,0,1,.587.248.866.866,0,0,1,.161.466.732.732,0,0,1-.046.253L103.854,60.49a.74.74,0,0,1-.759.587h-.046a.73.73,0,0,1-.758-.587L98.622,48.68l-3.68,11.81a.808.808,0,0,1-.276.455A.875.875,0,0,1,94.148,61.077Z"/><path d="M115.205,48.289l-3.082,7.463H116.4a.691.691,0,0,1,.552.213.755.755,0,0,1,.183.512.731.731,0,0,1-.183.506.7.7,0,0,1-.552.207h-4.864l-1.415,3.427a.642.642,0,0,1-.6.472.939.939,0,0,1-.356-.081.643.643,0,0,1-.392-.955l5.612-13.489a.863.863,0,0,1,.817-.564h.057a.807.807,0,0,1,.783.564L121.7,60.053a.633.633,0,0,1-.392.955,1.007,1.007,0,0,1-.356.069.612.612,0,0,1-.575-.46Z"/><path d="M125.439,61.077a.641.641,0,0,1-.725-.725V46.725a.725.725,0,0,1,1.45,0v12.9h6.785a.725.725,0,0,1,0,1.449Z"/><path d="M137.25,61.077a.641.641,0,0,1-.725-.725V46.725a.725.725,0,1,1,1.449,0v12.9h6.785a.725.725,0,1,1,0,1.449Z"/><path d="M157.558,46a.725.725,0,1,1,0,1.449h-8.5a.771.771,0,0,1-.529-.172.7.7,0,0,1-.195-.552A.64.64,0,0,1,149.06,46Zm.725,14.352a.641.641,0,0,1-.725.725h-8.5a.754.754,0,0,1-.529-.178.7.7,0,0,1-.195-.547v-6.9a.665.665,0,0,1,.212-.551.782.782,0,0,1,.512-.173h5.773a.725.725,0,1,1,0,1.449h-5.048v5.451h7.773A.64.64,0,0,1,158.283,60.352Z"/><path d="M172.037,46.2a.689.689,0,0,1,.195.529.738.738,0,0,1-.184.529.688.688,0,0,1-.529.2H160.572a.659.659,0,0,1-.725-.724.676.676,0,0,1,.725-.725h10.947A.636.636,0,0,1,172.037,46.2Zm-6.728,3.427a.867.867,0,0,1,.15-.512.675.675,0,0,1,.587-.213.661.661,0,0,1,.575.213.874.874,0,0,1,.149.512V60.352a.673.673,0,0,1-.724.725.753.753,0,0,1-.536-.19.7.7,0,0,1-.2-.535Z"/><path d="M23.583,22.011a6.462,6.462,0,1,0,6.462,6.462A6.472,6.472,0,0,0,23.583,22.011Zm0,8.993a2.257,2.257,0,0,1-.754-4.386V24.983h1.509v1.635A2.257,2.257,0,0,1,23.583,31ZM46.49,35.171a6.454,6.454,0,1,0,6.462,6.461A6.46,6.46,0,0,0,46.49,35.171Zm.755,8.647v1.635H45.736V43.818a2.241,2.241,0,0,1-1.51-2.139,2.264,2.264,0,1,1,3.019,2.139Zm-.755-8.647a6.454,6.454,0,1,0,6.462,6.461A6.46,6.46,0,0,0,46.49,35.171Zm.755,8.647v1.635H45.736V43.818a2.241,2.241,0,0,1-1.51-2.139,2.264,2.264,0,1,1,3.019,2.139ZM57.307,0H12.766A12.779,12.779,0,0,0,0,12.782V57.308A12.778,12.778,0,0,0,12.766,70.089H57.307A12.778,12.778,0,0,0,70.074,57.308V12.782A12.779,12.779,0,0,0,57.307,0ZM46.49,17.515a9.384,9.384,0,0,1,9.371,9.37,9.267,9.267,0,0,1-1.148,4.481,12.654,12.654,0,0,0-3.93-2.17,4.941,4.941,0,0,0,.581-2.311,4.874,4.874,0,1,0-9.747,0A4.757,4.757,0,0,0,42.2,29.2a12.654,12.654,0,0,0-3.93,2.17,9.267,9.267,0,0,1-1.148-4.481A9.373,9.373,0,0,1,46.49,17.515ZM23.583,52.575a9.384,9.384,0,0,1-9.37-9.371h4.5a4.874,4.874,0,1,0,9.748,0h4.5A9.374,9.374,0,0,1,23.583,52.575Zm0-13.159A10.951,10.951,0,1,1,34.542,28.473,10.951,10.951,0,0,1,23.583,39.416ZM46.49,52.575A10.951,10.951,0,1,1,57.433,41.632,10.964,10.964,0,0,1,46.49,52.575Zm0-17.4a6.454,6.454,0,1,0,6.462,6.461A6.46,6.46,0,0,0,46.49,35.171Zm.755,8.647v1.635H45.736V43.818a2.241,2.241,0,0,1-1.51-2.139,2.264,2.264,0,1,1,3.019,2.139Zm-.755-8.647a6.454,6.454,0,1,0,6.462,6.461A6.46,6.46,0,0,0,46.49,35.171Zm.755,8.647v1.635H45.736V43.818a2.241,2.241,0,0,1-1.51-2.139,2.264,2.264,0,1,1,3.019,2.139Zm-.755-8.647a6.454,6.454,0,1,0,6.462,6.461A6.46,6.46,0,0,0,46.49,35.171Zm.755,8.647v1.635H45.736V43.818a2.241,2.241,0,0,1-1.51-2.139,2.264,2.264,0,1,1,3.019,2.139Z"/></svg>