<?xml version="1.0" encoding="UTF-8"?>
<svg width="100px" height="100px" viewBox="0 0 100 100" version="1.1" xmlns="http://www.w3.org/2000/svg" xmlns:xlink="http://www.w3.org/1999/xlink">
    <title>矩形</title>
    <g id="页面-1" stroke="none" stroke-width="1" fill="none" fill-rule="evenodd">
        <g id="下载页ios" transform="translate(-138.000000, -94.000000)">
            <g id="Coinhub-" transform="translate(138.000000, 94.000000)">
                <rect id="矩形" x="0" y="0" width="100" height="100"></rect>
                <g id="编组" transform="translate(3.333333, 3.333333)" fill-rule="nonzero">
                    <path d="M57.9563542,40.7046316 C57.9563542,40.7046316 62.776875,56.3452105 81.6159896,58.5166842 C84.7313542,58.8755263 88.2605208,59.2638421 91.8684375,58.1880526 C92.0222917,58.1976316 92.1725,58.2407368 92.308125,58.3140526 C92.4441146,58.3873684 92.5629688,58.4890526 92.6566667,58.6128421 C92.75,58.7366316 92.8159896,58.8795789 92.8502604,59.0313684 C92.8845313,59.1831579 92.885625,59.3404737 92.8542708,59.493 C92.3238021,63.1517895 91.1235937,66.6786842 89.3152604,69.8935263 C84.7411979,78.1118947 74.6954688,88.9806842 52.0118229,92.806 C50.8090625,92.806 48.4330729,91.7401579 47.3291146,91.9295263 C47.3291146,91.9092632 19.9725312,67.6520526 57.9563542,40.7046316 Z" id="路径" fill="#CFBFA3"></path>
                    <path d="M52.0114583,92.806 C52.0114583,92.806 32.1965,64.1752632 63.3091667,49.511 L59.4347396,44.4105789 C59.4347396,44.4105789 19.1441979,65.1913684 52.0114583,92.806 Z" id="路径" fill="#B9A798"></path>
                    <path d="M92.8546354,59.5331579 C92.2395833,63.3610526 90.9402083,67.0437895 89.0199479,70.4015789 L83.2624479,58.6961053 C85.9301042,59.0549474 88.6396875,58.9164211 91.2577604,58.2878947 C92.5097396,57.9990526 93.051875,58.4172105 92.8546354,59.5331579 Z" id="路径" fill="#8C6742"></path>
                    <path d="M59.7996875,67.5323158 C62.015625,67.5323158 63.8119271,65.7171053 63.8119271,63.4778421 C63.8119271,61.2385789 62.015625,59.4233684 59.7996875,59.4233684 C57.58375,59.4233684 55.7874479,61.2385789 55.7874479,63.4778421 C55.7874479,65.7171053 57.58375,67.5323158 59.7996875,67.5323158 Z" id="路径" fill="#222222"></path>
                    <path d="M60.5591146,6.81402105 L63.8910417,1.27513474 C58.2728125,2.21861316 52.7770833,3.79584211 47.5066667,5.97718947 C46.1238021,6.10849474 44.7485937,6.31131053 43.3861458,6.58486316 L50.0602083,3.46246229e-13 C43.4630729,1.63130947 37.489375,5.19374211 32.8870573,10.2409263 C32.2068177,10.5796526 31.5364583,10.9482579 30.9153906,11.3367579 L36.1501146,1.59392579 C29.0491979,5.46324211 23.4803333,11.6816368 20.3769635,19.2067474 L23.6104531,7.85005789 C23.6104531,7.85005789 15.4379896,14.1062158 13.9888437,29.5373474 C13.8015208,29.9159 13.6141979,30.2944526 13.4367552,30.6829526 L12.5495417,16.8557053 C12.5495417,16.8557053 4.6038125,29.6568632 9.71034896,44.1316842 L4.1601875,30.1848474 C4.1601875,30.1848474 0.719651042,41.1430526 9.08928125,55.349 L-2.76322175e-14,44.7093684 C-2.76322175e-14,44.7093684 0.877380729,63.0692632 11.2679583,73.0015263 C11.2679583,73.0015263 15.0042083,71.876 17.3011927,74.5455789 C20.960224,79.9234211 25.8029479,84.371 31.4491771,87.5394211 C37.0952604,90.7074737 43.3916146,92.5105263 49.8432812,92.806 C50.3854167,92.806 51.4696875,92.806 51.4696875,92.806 C51.4696875,92.806 32.1870937,75.9802105 50.7696875,51.9617368 C69.3623437,29.8561053 93.3869271,45.2273684 93.1601562,43.2448947 C92.0376042,34.5426789 88.3155729,26.3932053 82.490625,19.8839789 C76.6656771,13.3747526 69.0148958,8.81532105 60.5591146,6.81402105 L60.5591146,6.81402105 Z" id="路径" fill="#22A079"></path>
                    <path d="M43.3464063,78.5801579 C43.3464063,78.5801579 22.0624323,86.0815789 2.28683438,57.0323158 C4.40817708,64.6542105 8.20615104,71.6932632 13.3970521,77.6237368 C20.6231302,86.0218947 34.9767396,93.3140526 52.0118229,92.7861053 C49.95375,91.1794211 48.2372917,89.1704211 46.9641667,86.8784737 C45.4938021,84.238 44.2819271,81.459 43.3464063,78.5801579 L43.3464063,78.5801579 Z" id="路径" fill="#1B8061"></path>
                </g>
            </g>
        </g>
    </g>
</svg>