<?xml version="1.0" encoding="UTF-8"?>
<svg width="520px" height="520px" viewBox="0 0 520 520" version="1.1" xmlns="http://www.w3.org/2000/svg">
    <title>HyperPay</title>
    <g id="页面-1" stroke="none" stroke-width="1" fill="none" fill-rule="evenodd">
        <g id="编组-33" fill="#1A72FE" fill-rule="nonzero">
            <path d="M260,0 C403.52,0 520,115.941255 520,259.65287 C520,403.364486 403.52,520 260,520 C116.48,520 0,404.058745 0,260.34713 C0,116.635514 116.48,0 260,0 Z M123.463985,122.647737 L123.413333,122.64753 L106.08,183.624833 L221.866667,183.624833 L208,248.75968 L279.413333,248.75968 L279.413333,248.75968 L279.413853,248.705978 C279.423733,248.014786 279.621333,240.444593 283.573333,214.113485 C289.813333,170.459279 365.386667,167.687583 364.693333,216.88518 C364,252.917223 336.266667,257.074766 318.24,257.76769 C312.471467,257.989426 286.184704,258.069251 253.102077,258.075282 L243.629707,258.075089 C174.087333,258.060451 81.8133333,257.76769 81.8133333,257.76769 L81.8133333,257.76769 L61.7066667,318.052069 L187.2,318.052069 L168.48,391.502003 L248.906667,391.502003 L268.32,316.666222 C268.32,316.666222 283.7952,316.416769 299.91936,316.217207 L302.340998,316.187684 C312.301392,316.068159 322.226667,315.973298 328.64,315.973298 C359.84,315.973298 442.346667,295.878505 442.346667,209.955941 C442.346667,131.655541 357.066667,123.340454 325.173333,123.340454 C293.28,123.340454 123.413333,122.64753 123.413333,122.64753 Z" id="形状结合"></path>
        </g>
    </g>
</svg>
