<svg width="32" height="32" viewBox="0 0 32 32" fill="none" xmlns="http://www.w3.org/2000/svg">
    <circle cx="16" cy="16" r="16" fill="white"/>
    <rect x="5" y="5" width="22" height="22" fill="white" fill-opacity="1"/>
    <path fill-rule="evenodd" clip-rule="evenodd" d="M14.6965 5.43487C15.091 4.75316 16.0749 4.75211 16.4708 5.43299L17.3398 6.92719C17.649 7.45896 17.6487 8.11588 17.3389 8.64734L9.63121 21.871C9.21851 22.5791 8.19623 22.5811 7.78076 21.8746C7.73132 21.7906 7.69358 21.7001 7.66858 21.6058L7.37088 20.4829C7.09266 19.4334 7.2418 18.3164 7.78563 17.3767L14.6965 5.43487ZM12.6636 19.2858C13.0635 18.5997 14.0035 18.4757 14.5677 19.0345L17.4288 21.8686C18.8605 23.2867 18.8565 25.6016 17.42 27.0149C17.2045 27.2269 16.8798 27.2825 16.606 27.1542L11.6002 24.8081C10.6907 24.3819 10.343 23.2671 10.8487 22.3994L12.6636 19.2858ZM20.435 16.3372C21.4897 16.3372 22.1474 15.1939 21.6172 14.2822L19.7828 11.128C19.2558 10.2218 17.9471 10.2212 17.4192 11.1269L15.4309 14.5381C14.966 15.3358 15.5414 16.3372 16.4647 16.3372L20.435 16.3372Z" fill="black"/>
    <path fill-rule="evenodd" clip-rule="evenodd" d="M21.7303 17.6459C22.8713 17.6459 23.9261 18.2527 24.4998 19.239V19.239C24.6763 19.5427 24.6247 19.9274 24.3743 20.1737L22.0511 22.459C21.4509 23.0494 20.4877 23.0478 19.8895 22.4553L16.5101 19.1078C15.9677 18.5706 16.3481 17.6459 17.1116 17.6459L21.7303 17.6459Z" fill="#2161FF"/>
</svg>
