<svg version="1.1" xmlns="http://www.w3.org/2000/svg" xmlns:xlink="http://www.w3.org/1999/xlink" width="100%" height="100%" viewBox="0, 0, 400,400"><g><path d="M216.167 223.335 C 207.555 224.855,202.555 234.774,206.463 242.583 C 207.709 245.073,208.214 245.592,243.517 280.709 C 254.924 292.055,256.790 293.740,259.095 294.770 C 259.455 294.930,260.200 295.267,260.750 295.516 C 267.628 298.640,276.813 298.064,283.083 294.115 C 285.806 292.400,285.719 292.482,300.853 277.475 C 304.703 273.657,308.843 269.561,310.052 268.371 C 313.108 265.364,314.218 264.176,314.735 263.357 C 314.980 262.969,315.421 262.332,315.715 261.941 C 316.377 261.062,317.162 259.500,317.820 257.750 C 321.680 247.489,317.971 236.530,308.133 229.126 C 306.231 227.695,301.895 225.295,300.883 225.113 C 300.718 225.084,299.863 224.825,298.982 224.538 C 298.102 224.251,296.639 223.846,295.732 223.638 L 294.083 223.259 255.500 223.231 C 234.279 223.216,216.579 223.263,216.167 223.335 " stroke="none" fill="#2464fc" fill-rule="evenodd"></path><path id="path1" d="M190.852 43.082 C 186.086 44.155,182.177 47.017,179.781 51.186 C 179.339 51.955,178.634 53.183,178.213 53.917 C 177.792 54.650,177.109 55.813,176.693 56.500 C 176.278 57.188,175.671 58.250,175.344 58.861 C 175.017 59.472,174.285 60.749,173.717 61.699 C 173.149 62.649,172.631 63.574,172.565 63.754 C 172.500 63.935,172.203 64.458,171.905 64.917 C 171.608 65.375,170.867 66.644,170.258 67.736 C 169.649 68.828,169.014 69.915,168.848 70.152 C 168.682 70.389,168.049 71.496,167.443 72.611 C 166.837 73.726,166.116 74.972,165.841 75.379 C 165.567 75.786,165.189 76.448,165.001 76.851 C 164.814 77.254,164.287 78.183,163.831 78.917 C 163.375 79.650,162.849 80.568,162.661 80.956 C 162.473 81.345,161.960 82.245,161.520 82.956 C 161.080 83.668,160.362 84.925,159.924 85.750 C 159.486 86.575,159.034 87.362,158.920 87.500 C 158.806 87.638,158.526 88.087,158.298 88.500 C 157.454 90.027,155.961 92.606,155.501 93.333 C 155.240 93.746,155.020 94.210,155.013 94.365 C 155.006 94.520,154.935 94.687,154.857 94.736 C 154.679 94.846,152.879 97.844,152.448 98.750 C 152.273 99.117,151.887 99.792,151.589 100.250 C 151.291 100.708,150.542 101.983,149.925 103.083 C 148.787 105.110,147.939 106.587,146.636 108.811 C 146.240 109.486,145.617 110.589,145.250 111.262 C 144.883 111.936,144.125 113.258,143.565 114.202 C 143.005 115.145,142.501 116.049,142.445 116.210 C 142.388 116.372,142.013 117.009,141.611 117.627 C 141.209 118.245,140.520 119.425,140.081 120.250 C 139.642 121.075,139.080 122.050,138.832 122.417 C 138.583 122.783,138.059 123.683,137.666 124.417 C 137.273 125.150,136.556 126.401,136.072 127.197 C 135.588 127.993,135.037 128.968,134.848 129.364 C 134.658 129.759,134.056 130.796,133.510 131.667 C 132.964 132.537,132.513 133.332,132.509 133.432 C 132.504 133.533,132.210 134.063,131.857 134.610 C 131.503 135.158,130.740 136.463,130.161 137.511 C 129.582 138.559,128.851 139.820,128.535 140.313 C 128.220 140.806,127.816 141.519,127.638 141.897 C 127.459 142.274,126.945 143.183,126.495 143.917 C 126.045 144.650,125.460 145.662,125.196 146.167 C 124.931 146.671,124.305 147.758,123.804 148.583 C 123.304 149.408,122.648 150.571,122.348 151.167 C 122.047 151.762,121.704 152.362,121.584 152.500 C 121.464 152.637,120.825 153.725,120.164 154.917 C 119.503 156.108,118.717 157.458,118.419 157.917 C 118.121 158.375,117.731 159.050,117.554 159.417 C 117.376 159.783,116.777 160.833,116.223 161.750 C 115.669 162.667,115.055 163.754,114.859 164.167 C 114.664 164.579,114.192 165.404,113.811 166.000 C 113.429 166.596,112.797 167.690,112.405 168.431 C 112.014 169.173,111.493 170.073,111.247 170.431 C 111.002 170.790,110.576 171.528,110.300 172.072 C 110.023 172.616,109.401 173.704,108.916 174.489 C 108.431 175.274,107.858 176.270,107.642 176.703 C 107.426 177.135,106.770 178.287,106.184 179.264 C 105.598 180.240,104.923 181.403,104.684 181.850 C 104.127 182.891,102.439 185.838,101.783 186.917 C 101.504 187.375,100.701 188.770,100.000 190.018 C 99.298 191.265,98.558 192.517,98.356 192.801 C 98.154 193.085,97.801 193.715,97.572 194.200 C 97.343 194.686,96.782 195.683,96.325 196.417 C 95.868 197.150,95.284 198.162,95.028 198.667 C 94.771 199.171,94.240 200.101,93.847 200.733 C 93.454 201.366,92.829 202.453,92.458 203.150 C 92.086 203.847,91.581 204.717,91.335 205.083 C 91.089 205.450,90.526 206.425,90.084 207.250 C 89.642 208.075,88.912 209.339,88.462 210.058 C 88.012 210.778,87.599 211.491,87.545 211.642 C 87.492 211.793,86.909 212.817,86.251 213.917 C 85.594 215.017,85.004 216.057,84.942 216.229 C 84.879 216.401,84.426 217.191,83.934 217.986 C 83.443 218.780,82.834 219.840,82.580 220.340 C 82.327 220.841,81.781 221.808,81.367 222.489 C 80.953 223.171,80.330 224.385,79.982 225.187 C 79.635 225.989,79.132 227.119,78.866 227.698 C 78.110 229.342,77.022 232.707,76.263 235.750 C 74.371 243.332,74.471 253.175,76.519 260.917 C 76.786 261.925,77.125 263.275,77.272 263.917 C 77.598 265.337,78.410 268.388,78.824 269.750 C 78.991 270.300,79.328 271.425,79.573 272.250 C 80.357 274.889,80.688 275.868,81.574 278.167 C 82.051 279.404,82.541 280.717,82.662 281.083 C 83.228 282.793,86.642 289.829,88.484 293.083 C 90.268 296.235,91.891 297.525,94.836 298.134 C 98.529 298.898,101.950 297.186,104.057 293.520 C 104.458 292.822,105.064 291.762,105.402 291.167 C 105.741 290.571,106.265 289.671,106.567 289.167 C 106.869 288.662,107.514 287.545,108.001 286.683 C 108.488 285.821,109.137 284.735,109.443 284.270 C 109.749 283.805,110.000 283.363,110.000 283.287 C 110.000 283.212,110.563 282.223,111.250 281.089 C 111.938 279.955,112.500 278.960,112.500 278.879 C 112.500 278.798,112.900 278.098,113.390 277.324 C 113.879 276.550,114.603 275.317,114.999 274.583 C 115.394 273.850,115.921 272.950,116.169 272.583 C 116.417 272.217,116.942 271.317,117.335 270.583 C 117.729 269.850,118.440 268.612,118.915 267.833 C 119.390 267.054,119.928 266.117,120.110 265.750 C 120.293 265.383,120.758 264.574,121.143 263.952 C 121.529 263.330,122.113 262.317,122.442 261.702 C 122.770 261.087,123.283 260.208,123.582 259.750 C 123.881 259.292,124.559 258.129,125.089 257.167 C 125.618 256.204,126.256 255.116,126.506 254.749 C 126.755 254.382,127.144 253.707,127.369 253.249 C 127.593 252.791,128.278 251.598,128.889 250.597 C 129.500 249.597,130.000 248.711,130.000 248.630 C 130.000 248.549,130.326 247.980,130.723 247.366 C 131.121 246.752,131.732 245.725,132.081 245.083 C 132.430 244.442,133.143 243.204,133.665 242.333 C 134.187 241.463,135.042 240.000,135.565 239.083 C 136.088 238.167,136.732 237.079,136.995 236.667 C 137.258 236.254,137.480 235.810,137.487 235.680 C 137.494 235.550,137.599 235.325,137.721 235.180 C 138.066 234.769,140.000 231.544,140.000 231.379 C 140.000 231.298,140.399 230.598,140.888 229.824 C 141.376 229.050,141.954 228.079,142.172 227.667 C 142.390 227.254,143.115 226.009,143.784 224.901 C 144.453 223.792,145.000 222.838,145.000 222.782 C 145.000 222.726,145.427 221.983,145.949 221.131 C 146.471 220.280,147.149 219.096,147.455 218.500 C 147.762 217.904,148.391 216.817,148.853 216.083 C 149.315 215.350,149.807 214.491,149.947 214.174 C 150.086 213.857,150.519 213.107,150.909 212.508 C 151.300 211.908,151.941 210.817,152.334 210.083 C 153.108 208.641,153.275 208.357,154.104 207.067 C 154.405 206.600,154.748 206.001,154.867 205.736 C 154.986 205.471,155.477 204.615,155.957 203.835 C 156.438 203.055,157.099 201.892,157.427 201.251 C 157.754 200.610,158.120 199.972,158.239 199.834 C 158.359 199.696,158.982 198.646,159.625 197.500 C 160.267 196.354,161.158 194.803,161.605 194.052 C 162.659 192.281,163.933 190.074,164.667 188.751 C 164.987 188.172,165.737 186.886,166.333 185.893 C 166.929 184.900,167.513 183.865,167.631 183.594 C 167.749 183.322,168.095 182.721,168.401 182.258 C 168.706 181.795,169.442 180.554,170.036 179.500 C 171.144 177.534,171.320 177.232,173.549 173.462 C 174.263 172.254,174.994 170.962,175.173 170.591 C 175.352 170.220,175.918 169.242,176.432 168.417 C 176.946 167.592,177.427 166.761,177.501 166.571 C 177.576 166.380,178.116 165.443,178.703 164.487 C 179.289 163.532,179.981 162.337,180.240 161.833 C 180.499 161.329,181.029 160.429,181.416 159.833 C 181.804 159.237,182.267 158.450,182.445 158.083 C 182.623 157.717,183.236 156.646,183.807 155.705 C 184.377 154.764,184.910 153.820,184.991 153.608 C 185.071 153.396,185.471 152.704,185.879 152.070 C 186.287 151.436,186.942 150.317,187.334 149.583 C 187.726 148.850,188.250 147.950,188.498 147.583 C 188.746 147.217,189.422 146.054,190.000 145.000 C 190.578 143.946,191.270 142.762,191.537 142.369 C 191.805 141.977,192.178 141.302,192.366 140.869 C 192.554 140.437,192.806 139.971,192.925 139.833 C 193.045 139.696,193.629 138.721,194.224 137.667 C 194.819 136.612,195.473 135.487,195.676 135.167 C 195.880 134.846,196.571 133.646,197.212 132.500 C 197.852 131.354,198.634 130.004,198.948 129.500 C 199.262 128.996,199.898 127.908,200.361 127.083 C 200.823 126.258,201.446 125.208,201.744 124.750 C 202.043 124.292,202.446 123.579,202.639 123.167 C 202.833 122.754,203.412 121.742,203.928 120.917 C 204.443 120.092,204.937 119.229,205.027 119.000 C 205.116 118.771,205.547 118.021,205.985 117.333 C 206.423 116.646,207.104 115.483,207.498 114.750 C 207.892 114.017,208.430 113.091,208.695 112.694 C 208.959 112.296,209.484 111.396,209.863 110.694 C 210.241 109.991,210.923 108.817,211.378 108.083 C 211.833 107.350,212.385 106.375,212.605 105.917 C 212.826 105.458,213.316 104.596,213.695 104.001 C 214.074 103.406,214.683 102.356,215.047 101.668 C 215.412 100.980,215.806 100.304,215.922 100.167 C 216.162 99.883,218.857 95.145,219.435 93.991 C 222.211 88.448,222.817 80.550,220.917 74.667 C 219.979 71.761,219.616 70.877,218.708 69.290 C 218.181 68.370,217.487 67.120,217.167 66.513 C 216.846 65.906,216.426 65.186,216.233 64.913 C 216.040 64.640,215.411 63.559,214.834 62.511 C 214.258 61.463,213.497 60.158,213.143 59.610 C 212.790 59.063,212.500 58.558,212.500 58.489 C 212.500 58.420,212.002 57.551,211.393 56.557 C 210.784 55.563,210.034 54.262,209.725 53.667 C 209.166 52.587,208.791 51.966,207.361 49.750 C 204.157 44.785,196.689 41.769,190.852 43.082 M234.500 122.502 C 227.919 122.929,220.660 127.841,217.622 133.923 C 217.395 134.378,216.731 135.555,216.146 136.539 C 215.562 137.524,214.521 139.303,213.833 140.493 C 213.146 141.683,212.214 143.278,211.762 144.037 C 211.311 144.796,210.673 145.917,210.346 146.527 C 210.018 147.138,209.300 148.376,208.750 149.277 C 208.200 150.179,207.563 151.274,207.333 151.711 C 207.104 152.148,206.543 153.123,206.087 153.878 C 205.631 154.632,205.049 155.656,204.793 156.152 C 204.538 156.649,204.079 157.436,203.774 157.902 C 203.468 158.369,202.933 159.275,202.584 159.917 C 201.886 161.202,201.703 161.511,200.887 162.779 C 200.582 163.253,200.184 163.966,200.002 164.362 C 199.820 164.759,199.253 165.758,198.741 166.583 C 198.228 167.408,197.639 168.421,197.432 168.833 C 197.224 169.246,196.603 170.333,196.051 171.250 C 195.499 172.167,194.771 173.404,194.433 174.000 C 194.096 174.596,193.586 175.458,193.301 175.917 C 186.045 187.601,193.953 203.263,207.823 204.675 C 211.595 205.059,261.827 204.796,263.583 204.383 C 266.851 203.615,270.754 201.900,272.197 200.598 C 272.410 200.407,272.900 200.035,273.286 199.773 C 279.169 195.779,282.720 184.335,280.250 177.333 C 280.112 176.944,280.000 176.476,280.000 176.293 C 280.000 175.902,278.756 173.043,278.425 172.673 C 278.299 172.532,277.927 171.892,277.598 171.250 C 277.270 170.608,276.627 169.483,276.171 168.750 C 275.714 168.017,275.199 167.117,275.026 166.750 C 274.853 166.383,274.214 165.271,273.606 164.279 C 272.998 163.286,272.500 162.420,272.500 162.354 C 272.500 162.288,272.051 161.505,271.502 160.613 C 270.952 159.722,270.192 158.413,269.811 157.704 C 269.431 156.996,268.755 155.847,268.310 155.150 C 267.864 154.453,267.499 153.816,267.497 153.733 C 267.496 153.651,267.007 152.796,266.412 151.833 C 265.816 150.871,265.180 149.759,264.998 149.362 C 264.816 148.966,264.418 148.253,264.113 147.779 C 263.275 146.476,263.110 146.195,262.335 144.750 C 261.941 144.017,261.415 143.117,261.165 142.750 C 260.915 142.383,260.499 141.671,260.239 141.167 C 259.980 140.662,259.270 139.425,258.661 138.417 C 258.052 137.408,257.504 136.447,257.444 136.280 C 257.384 136.112,256.865 135.225,256.292 134.307 C 255.719 133.390,255.074 132.314,254.860 131.917 C 254.440 131.141,251.407 127.667,251.148 127.667 C 251.063 127.667,250.675 127.376,250.288 127.021 C 246.695 123.731,240.940 122.084,234.500 122.502 M164.500 240.972 C 163.089 241.268,160.400 242.098,160.083 242.336 C 159.992 242.405,159.681 242.512,159.393 242.573 C 158.246 242.818,155.074 245.035,153.109 246.965 C 151.344 248.698,150.482 249.916,148.241 253.833 C 147.900 254.429,147.032 255.906,146.311 257.115 C 145.590 258.324,144.996 259.374,144.991 259.448 C 144.986 259.522,144.536 260.296,143.991 261.167 C 143.446 262.037,142.789 263.162,142.531 263.667 C 142.273 264.171,141.740 265.101,141.347 265.733 C 140.954 266.366,140.329 267.453,139.958 268.150 C 139.586 268.847,139.080 269.717,138.832 270.083 C 138.583 270.450,138.058 271.350,137.665 272.083 C 137.271 272.817,136.578 274.009,136.125 274.732 C 135.672 275.456,135.157 276.356,134.980 276.732 C 134.804 277.109,134.286 278.017,133.828 278.750 C 133.371 279.483,132.767 280.533,132.487 281.083 C 132.206 281.633,131.729 282.458,131.426 282.917 C 131.123 283.375,130.483 284.462,130.003 285.333 C 129.524 286.204,128.880 287.300,128.572 287.769 C 122.787 296.578,123.066 309.679,129.221 318.167 C 130.992 320.609,135.113 324.581,136.352 325.040 C 136.565 325.118,136.967 325.355,137.245 325.564 C 137.976 326.116,139.032 326.635,148.833 331.255 C 150.254 331.925,152.594 333.041,154.032 333.736 C 155.471 334.431,156.712 335.000,156.791 335.000 C 156.870 335.000,157.831 335.460,158.926 336.023 C 160.021 336.586,161.254 337.172,161.667 337.326 C 162.079 337.479,163.542 338.151,164.917 338.818 C 166.292 339.485,168.504 340.542,169.833 341.168 C 177.538 344.796,178.933 345.457,180.750 346.339 C 181.850 346.873,183.125 347.461,183.583 347.646 C 184.042 347.830,185.220 348.392,186.202 348.894 C 187.184 349.396,188.159 349.859,188.369 349.923 C 188.578 349.988,189.875 350.585,191.250 351.251 C 196.309 353.701,198.774 354.840,199.750 355.180 C 206.702 357.601,212.296 357.629,218.833 355.275 C 223.687 353.527,225.574 352.124,232.844 344.848 C 239.673 338.014,241.090 336.082,243.062 330.917 C 246.237 322.597,245.314 311.941,240.847 305.333 C 240.506 304.829,240.112 304.183,239.971 303.898 C 239.326 302.590,236.009 299.188,212.167 275.377 C 179.521 242.773,182.582 245.768,180.416 244.314 C 178.520 243.041,178.188 242.872,175.872 242.008 C 172.445 240.729,167.719 240.298,164.500 240.972 " stroke="none" fill="#040404" fill-rule="evenodd"></path><path id="path2" d="" stroke="none" fill="#1434100" fill-rule="evenodd"></path><path id="path3" d="" stroke="none" fill="#143444" fill-rule="evenodd"></path><path id="path4" d="" stroke="none" fill="#143804" fill-rule="evenodd"></path></g></svg>
