<svg viewBox="0 0 35 35" xmlns="http://www.w3.org/2000/svg"><g fill="#fff"><path d="m23.588 0h-16v21.583h21.6v-16a5.585 5.585 0 0 0 -5.6-5.583z" transform="translate(5.739)"/><path d="m8.342 0h-2.757a5.585 5.585 0 0 0 -5.585 5.585v2.757h8.342z"/><path d="m0 7.59h8.342v8.342h-8.342z" transform="translate(0 5.739)"/><path d="m15.18 23.451h2.757a5.585 5.585 0 0 0 5.585-5.6v-2.671h-8.342z" transform="translate(11.478 11.478)"/><path d="m7.59 15.18h8.342v8.342h-8.342z" transform="translate(5.739 11.478)"/><path d="m0 15.18v2.757a5.585 5.585 0 0 0 5.585 5.585h2.757v-8.342z" transform="translate(0 11.478)"/></g></svg>