<svg height="128" viewBox="0 0 128 128" width="128" xmlns="http://www.w3.org/2000/svg"><g fill="#fff" fill-rule="evenodd"><path d="m0 0h128v128h-128z" opacity="0"/><path d="m90.8470086 57.7610023c-2.2770363-2.2770363-2.2770363-5.9688416 0-8.2458778 2.2770362-2.2770363 5.9688415-2.2770363 8.2458778 0 2.2770366 2.2770362 2.2770366 5.9688415 0 8.2458778-2.2770363 2.2770362-5.9688416 2.2770362-8.2458778 0zm-19.5839598 19.5839597c-1.7077772-1.7077772-1.7077772-4.4766311 0-6.1844083s4.4766311-1.7077772 6.1844083 0 1.7077772 4.4766311 0 6.1844083-4.4766311 1.7077772-6.1844083 0zm30.9220422-10.3073472c-1.707778-1.7077772-1.707778-4.4766312 0-6.1844084 1.707777-1.7077772 4.476631-1.7077772 6.184408 0s1.707777 4.4766312 0 6.1844084-4.476631 1.7077772-6.184408 0zm-10.3073477 10.3073472c-1.7077772-1.7077772-1.7077772-4.4766311 0-6.1844083s4.4766311-1.7077772 6.1844083 0 1.7077772 4.4766311 0 6.1844083-4.4766311 1.7077772-6.1844083 0zm21.6454287-1.0307347c-1.138518-1.1385181-1.138518-2.9844208 0-4.1229389 1.138519-1.1385181 2.984421-1.1385181 4.122939 0 1.138519 1.1385181 1.138519 2.9844208 0 4.1229389-1.138518 1.1385181-2.98442 1.1385181-4.122939 0zm-10.307347 10.3073472c-1.138518-1.1385181-1.138518-2.9844207 0-4.1229389 1.138518-1.1385181 2.984421-1.1385181 4.122939 0 1.138518 1.1385182 1.138518 2.9844208 0 4.1229389-1.138518 1.1385182-2.984421 1.1385182-4.122939 0zm-22.6761637-18.553225c-2.2770363-2.2770363-2.2770363-5.9688415 0-8.2458778s5.9688415-2.2770363 8.2458778 0 2.2770363 5.9688415 0 8.2458778-5.9688415 2.2770363-8.2458778 0zm0-20.6146945c-2.2770363-2.2770363-2.2770363-5.9688415 0-8.2458778s5.9688415-2.2770363 8.2458778 0 2.2770363 5.9688415 0 8.2458778-5.9688415 2.2770363-8.2458778 0zm-10.3073472 10.3073473c-2.2770363-2.2770363-2.2770363-5.9688416 0-8.2458778 2.2770362-2.2770363 5.9688415-2.2770363 8.2458778 0 2.2770362 2.2770362 2.2770362 5.9688415 0 8.2458778-2.2770363 2.2770362-5.9688416 2.2770362-8.2458778 0zm-20.710506 0c-2.2770362-2.2770363-2.2770362-5.9688416 0-8.2458778 2.2770363-2.2770363 5.9688416-2.2770363 8.2458778 0 2.2770363 2.2770362 2.2770363 5.9688415 0 8.2458778-2.2770362 2.2770362-5.9688415 2.2770362-8.2458778 0zm-19.5839597 19.5839597c-1.7077772-1.7077772-1.7077772-4.4766311 0-6.1844083s4.4766311-1.7077772 6.1844083 0 1.7077772 4.4766311 0 6.1844083-4.4766311 1.7077772-6.1844083 0zm30.9220417-10.3073472c-1.7077772-1.7077772-1.7077772-4.4766312 0-6.1844084s4.4766312-1.7077772 6.1844084 0 1.7077772 4.4766312 0 6.1844084-4.4766312 1.7077772-6.1844084 0zm-10.3073472 10.3073472c-1.7077772-1.7077772-1.7077772-4.4766311 0-6.1844083s4.4766311-1.7077772 6.1844083 0 1.7077772 4.4766311 0 6.1844083-4.4766311 1.7077772-6.1844083 0zm-40.1986543-1.0307347c-1.13851813-1.1385181-1.13851813-2.9844208 0-4.1229389 1.1385181-1.1385181 2.9844208-1.1385181 4.1229389 0s1.1385181 2.9844208 0 4.1229389-2.9844208 1.1385181-4.1229389 0zm10.3073473 10.3073472c-1.1385182-1.1385181-1.1385182-2.9844207 0-4.1229389 1.1385181-1.1385181 2.9844207-1.1385181 4.1229388 0 1.1385182 1.1385182 1.1385182 2.9844208 0 4.1229389-1.1385181 1.1385182-2.9844207 1.1385182-4.1229388 0zm41.2293889 0c-1.1385181-1.1385181-1.1385181-2.9844207 0-4.1229389 1.1385182-1.1385181 2.9844208-1.1385181 4.1229389 0 1.1385182 1.1385182 1.1385182 2.9844208 0 4.1229389-1.1385181 1.1385182-2.9844207 1.1385182-4.1229389 0zm-42.2601237-19.5839597c-1.7077772-1.7077772-1.7077772-4.4766312 0-6.1844084s4.4766312-1.7077772 6.1844084 0 1.7077772 4.4766312 0 6.1844084-4.4766312 1.7077772-6.1844084 0zm19.5839598 1.0307347c-2.2770363-2.2770363-2.2770363-5.9688415 0-8.2458778s5.9688415-2.2770363 8.2458778 0 2.2770363 5.9688415 0 8.2458778-5.9688415 2.2770363-8.2458778 0zm0-20.6146945c-2.2770363-2.2770363-2.2770363-5.9688415 0-8.2458778s5.9688415-2.2770363 8.2458778 0 2.2770363 5.9688415 0 8.2458778-5.9688415 2.2770363-8.2458778 0zm-10.3073473 10.3073473c-2.2770362-2.2770363-2.2770362-5.9688416 0-8.2458778 2.2770363-2.2770363 5.9688416-2.2770363 8.2458778 0 2.2770363 2.2770362 2.2770363 5.9688415 0 8.2458778-2.2770362 2.2770362-5.9688415 2.2770362-8.2458778 0z"/></g></svg>