<svg width="40" height="40" viewBox="0 0 40 40" fill="none" xmlns="http://www.w3.org/2000/svg">
<rect width="40" height="40" rx="8" fill="black"/>
<path d="M23.5583 15.8965H16.4474C16.1453 15.8965 15.9004 16.1414 15.9004 16.4435V23.5544C15.9004 23.8565 16.1453 24.1014 16.4474 24.1014H23.5583C23.8604 24.1014 24.1053 23.8565 24.1053 23.5544V16.4435C24.1053 16.1414 23.8604 15.8965 23.5583 15.8965Z" fill="white"/>
<path d="M16.4474 16.3965H23.5583C23.5842 16.3965 23.6053 16.4175 23.6053 16.4435V23.5544C23.6053 23.5803 23.5842 23.6014 23.5583 23.6014H16.4474C16.4214 23.6014 16.4004 23.5803 16.4004 23.5544V16.4435C16.4004 16.4175 16.4214 16.3965 16.4474 16.3965Z" stroke="white" stroke-opacity="0.15"/>
<path d="M15.3503 7.69141H8.23937C7.93728 7.69141 7.69238 7.9363 7.69238 8.2384V15.3493C7.69238 15.6514 7.93728 15.8963 8.23937 15.8963H15.3503C15.6523 15.8963 15.8972 15.6514 15.8972 15.3493V8.2384C15.8972 7.9363 15.6523 7.69141 15.3503 7.69141Z" fill="white"/>
<path d="M8.23937 8.19141H15.3503C15.3762 8.19141 15.3972 8.21245 15.3972 8.2384V15.3493C15.3972 15.3752 15.3762 15.3963 15.3503 15.3963H8.23937C8.21342 15.3963 8.19238 15.3752 8.19238 15.3493V8.2384C8.19238 8.21244 8.21342 8.19141 8.23937 8.19141Z" stroke="white" stroke-opacity="0.15"/>
<path d="M31.7604 7.69141H24.6495C24.3474 7.69141 24.1025 7.9363 24.1025 8.2384V15.3493C24.1025 15.6514 24.3474 15.8963 24.6495 15.8963H31.7604C32.0625 15.8963 32.3074 15.6514 32.3074 15.3493V8.2384C32.3074 7.9363 32.0625 7.69141 31.7604 7.69141Z" fill="white"/>
<path d="M24.6495 8.19141H31.7604C31.7864 8.19141 31.8074 8.21245 31.8074 8.2384V15.3493C31.8074 15.3752 31.7864 15.3963 31.7604 15.3963H24.6495C24.6236 15.3963 24.6025 15.3752 24.6025 15.3493V8.2384C24.6025 8.21244 24.6236 8.19141 24.6495 8.19141Z" stroke="white" stroke-opacity="0.15"/>
<path d="M15.3503 24.0996H8.23937C7.93728 24.0996 7.69238 24.3445 7.69238 24.6466V31.7575C7.69238 32.0596 7.93728 32.3045 8.23937 32.3045H15.3503C15.6524 32.3045 15.8973 32.0596 15.8973 31.7575V24.6466C15.8973 24.3445 15.6524 24.0996 15.3503 24.0996Z" fill="white"/>
<path d="M8.23937 24.5996H15.3503C15.3762 24.5996 15.3973 24.6206 15.3973 24.6466V31.7575C15.3973 31.7834 15.3762 31.8045 15.3503 31.8045H8.23937C8.21342 31.8045 8.19238 31.7834 8.19238 31.7575V24.6466C8.19238 24.6206 8.21342 24.5996 8.23937 24.5996Z" stroke="white" stroke-opacity="0.15"/>
<path d="M31.7604 24.0996H24.6495C24.3474 24.0996 24.1025 24.3445 24.1025 24.6466V31.7575C24.1025 32.0596 24.3474 32.3045 24.6495 32.3045H31.7604C32.0625 32.3045 32.3074 32.0596 32.3074 31.7575V24.6466C32.3074 24.3445 32.0625 24.0996 31.7604 24.0996Z" fill="white"/>
<path d="M24.6495 24.5996H31.7604C31.7864 24.5996 31.8074 24.6206 31.8074 24.6466V31.7575C31.8074 31.7834 31.7864 31.8045 31.7604 31.8045H24.6495C24.6236 31.8045 24.6025 31.7834 24.6025 31.7575V24.6466C24.6025 24.6206 24.6236 24.5996 24.6495 24.5996Z" stroke="white" stroke-opacity="0.15"/>
</svg>
