<svg width="34" height="34" xmlns="http://www.w3.org/2000/svg" fill="none">
    <defs>
        <linearGradient y2="1" x2="0.5" y1="0" x1="0.5" id="paint0_linear">
            <stop stop-color="#534BB1"/>
            <stop stop-color="#551BF9" offset="1"/>
        </linearGradient>
        <linearGradient y2="1" x2="0.5" y1="0" x1="0.5" id="paint1_linear">
            <stop stop-color="white"/>
            <stop stop-opacity="0.82" stop-color="white" offset="1"/>
        </linearGradient>
    </defs>
    <circle id="svg_8" fill="url(#paint0_linear)" r="17" cy="17" cx="17"/>
    <path id="svg_9" fill="url(#paint1_linear)"
          d="m29.1702,17.2071l-2.9969,0c0,-6.1074 -4.9683,-11.05817 -11.0975,-11.05817c-6.05325,0 -10.97463,4.82957 -11.09508,10.83237c-0.12461,6.205 5.71752,11.5932 11.94538,11.5932l0.7834,0c5.4906,0 12.8497,-4.2829 13.9995,-9.5013c0.2123,-0.9619 -0.5502,-1.8661 -1.5388,-1.8661zm-18.5479,0.2721c0,0.8167 -0.67038,1.4847 -1.49001,1.4847c-0.81964,0 -1.48998,-0.6683 -1.48998,-1.4847l0,-2.4019c0,-0.8167 0.67034,-1.4847 1.48998,-1.4847c0.81963,0 1.49001,0.668 1.49001,1.4847l0,2.4019zm5.1738,0c0,0.8167 -0.6703,1.4847 -1.4899,1.4847c-0.8197,0 -1.49,-0.6683 -1.49,-1.4847l0,-2.4019c0,-0.8167 0.6706,-1.4847 1.49,-1.4847c0.8196,0 1.4899,0.668 1.4899,1.4847l0,2.4019z"/>
</svg>
