<svg height="256" viewBox="0 0 256 256" width="256" xmlns="http://www.w3.org/2000/svg"><g fill="none" fill-rule="evenodd"><path d="m256 128c0 70.693873-57.307933 128-128 128-70.6920667 0-128-57.306127-128-128 0-70.6920667 57.3079333-128 128-128 70.692067 0 128 57.3079333 128 128" fill="#000"/><path d="m200.991499 141.384379v11.934404c0 32.497078-46.205826 51.475346-61.935398 56.986532l-6.289371 2.174685v-20.629401l2.621916-.98928c22.714745-8.548836 45.632282-23.295465 46.088361-37.123784l.006922-.418752v-11.934404zm-72.865172-97.864379 19.661135 6.0633822v21.048067l-19.661135-6.0843963-1.286711.3992683v47.3545138h20.947846v19.510803h-20.947846v80.38063l-6.362892-2.375467c-2.448635-.928502-5.973167-2.339886-10.215875-4.249142l-.55744-.251858-2.374596-1.084652v-154.2937597zm-26.9692 8.4004758v20.9510788l-26.6410558 8.2698649v31.1590925h26.6410558v90.242718l-5.9001182-3.034115c-18.1762773-9.35539-39.8110882-25.070173-40.2419668-46.970248l-.0065411-.665532v-10.48928h19.5075703v10.48928c0 4.466737 2.2582867 9.1558 6.7186963 13.982944l.4115566.439209v-34.484173h-26.6378232v-65.646498zm52.5526-.4991662 47.281772 14.6339106v65.7564178h-27.758037v28.475751l-.285489.354206c-1.35525 1.634455-7.563575 8.622655-19.220465 14.594916zm19.523735 27.0775033v33.8020221h8.250467v-31.254464z" fill="#fff"/></g></svg>