<svg width="72" height="72" xmlns="http://www.w3.org/2000/svg" fill="none">
    <path id="svg_5" fill="#0364FF"
          d="m9.40691,0c-3.72271,0 -6.74056,3.01784 -6.74056,6.74055l0,7.85225c0,3.7227 3.01785,6.7405 6.74055,6.7405l11.92585,0l0,43.9261c0,3.7227 3.0179,6.7406 6.7406,6.7406l7.8522,0c3.7227,0 6.7406,-3.0179 6.7406,-6.7406l0,-50.6095c0.0001,-0.0191 0.0002,-0.0381 0.0002,-0.0571l0,-7.85224c0,-3.72271 -3.0179,-6.74056 -6.7406,-6.74056l-7.8524,0l-18.66644,0z"
          clip-rule="evenodd" fill-rule="evenodd"/>
    <path id="svg_6" fill="#1AC7FE"
          d="m58.66695,21.3333c5.8911,0 10.6667,-4.7756 10.6667,-10.6666c0,-5.89107 -4.7756,-10.6667 -10.6667,-10.6667c-5.891,0 -10.6666,4.77563 -10.6666,10.6667c0,5.891 4.7756,10.6666 10.6666,10.6666z"/>
</svg>
