<svg fill="none" height="72" width="72" xmlns="http://www.w3.org/2000/svg"><path clip-rule="evenodd" d="m9.40691 0c-3.72271 0-6.74056 3.01784-6.74056 6.74055v7.85225c0 3.7227 3.01785 6.7405 6.74055 6.7405h11.92585v43.9261c0 3.7227 3.0179 6.7406 6.7406 6.7406h7.8522c3.7227 0 6.7406-3.0179 6.7406-6.7406v-50.6095c.0001-.0191.0002-.0381.0002-.0571v-7.85224c0-3.72271-3.0179-6.74056-6.7406-6.74056h-7.8524-18.66644z" fill="#0364ff" fill-rule="evenodd"/><path d="m58.66695 21.3333c5.8911 0 10.6667-4.7756 10.6667-10.6666 0-5.89107-4.7756-10.6667-10.6667-10.6667-5.891 0-10.6666 4.77563-10.6666 10.6667 0 5.891 4.7756 10.6666 10.6666 10.6666z" fill="#1ac7fe"/></svg>